<svg width="49" height="49" viewBox="0 0 49 49" fill="none" xmlns="http://www.w3.org/2000/svg">
<circle cx="24.501" cy="24.501" r="24.501" fill="#2F3C7E"/>
<path d="M14.2917 37.6237C13.4896 37.6237 12.8032 37.3384 12.2325 36.7677C11.6618 36.197 11.376 35.5101 11.375 34.707V14.2904C11.375 13.4883 11.6608 12.8019 12.2325 12.2312C12.8042 11.6605 13.4906 11.3747 14.2917 11.3737H20.4167C20.7326 10.4987 21.2615 9.79384 22.0033 9.25911C22.7451 8.72439 23.5774 8.45703 24.5 8.45703C25.4226 8.45703 26.2553 8.72439 26.9981 9.25911C27.7409 9.79384 28.2693 10.4987 28.5833 11.3737H34.7083C35.5104 11.3737 36.1973 11.6595 36.769 12.2312C37.3406 12.8029 37.626 13.4893 37.625 14.2904V34.707C37.625 35.5091 37.3397 36.196 36.769 36.7677C36.1983 37.3393 35.5114 37.6247 34.7083 37.6237H14.2917ZM17.2083 31.7904H27.4167V28.8737H17.2083V31.7904ZM17.2083 25.957H31.7917V23.0404H17.2083V25.957ZM17.2083 20.1237H31.7917V17.207H17.2083V20.1237ZM24.5 13.1966C24.816 13.1966 25.0775 13.0931 25.2846 12.886C25.4917 12.6789 25.5947 12.4179 25.5938 12.1029C25.5928 11.7879 25.4892 11.5268 25.2831 11.3197C25.077 11.1127 24.816 11.0091 24.5 11.0091C24.184 11.0091 23.923 11.1127 23.7169 11.3197C23.5108 11.5268 23.4072 11.7879 23.4062 12.1029C23.4053 12.4179 23.5088 12.6794 23.7169 12.8874C23.9249 13.0955 24.186 13.1986 24.5 13.1966Z" fill="white"/>
</svg>
