<svg width="49" height="49" viewBox="0 0 49 49" fill="none" xmlns="http://www.w3.org/2000/svg">
<circle cx="24.501" cy="24.501" r="24.501" fill="#4680FF"/>
<g clip-path="url(#clip0_9683_44783)">
<path d="M34.708 31.793V34.7096H17.208V31.793C17.208 31.793 17.208 25.9596 25.958 25.9596C34.708 25.9596 34.708 31.793 34.708 31.793ZM30.333 18.668C30.333 17.8027 30.0764 16.9568 29.5957 16.2374C29.115 15.5179 28.4317 14.9571 27.6322 14.626C26.8328 14.2949 25.9532 14.2082 25.1045 14.377C24.2558 14.5458 23.4763 14.9625 22.8644 15.5744C22.2526 16.1862 21.8359 16.9658 21.6671 17.8145C21.4983 18.6631 21.5849 19.5428 21.916 20.3422C22.2472 21.1416 22.8079 21.8249 23.5274 22.3056C24.2469 22.7864 25.0927 23.043 25.958 23.043C27.1183 23.043 28.2311 22.582 29.0516 21.7616C29.8721 20.9411 30.333 19.8283 30.333 18.668ZM34.9997 26.0471C35.7968 26.7826 36.4395 27.6694 36.8902 28.656C37.3409 29.6425 37.5906 30.7089 37.6247 31.793V34.7096H41.9997V31.793C41.9997 31.793 41.9997 26.7617 34.9997 26.0471ZM33.2497 14.293C32.809 14.293 32.3711 14.3619 31.9518 14.4971C32.805 15.7206 33.2624 17.1764 33.2624 18.668C33.2624 20.1596 32.805 21.6153 31.9518 22.8388C32.3711 22.9741 32.809 23.0429 33.2497 23.043C34.41 23.043 35.5228 22.582 36.3433 21.7616C37.1637 20.9411 37.6247 19.8283 37.6247 18.668C37.6247 17.5076 37.1637 16.3949 36.3433 15.5744C35.5228 14.7539 34.41 14.293 33.2497 14.293ZM17.7038 20.0096L19.3955 22.0659L12.4684 28.993L8.45801 24.618L10.1497 22.9263L12.4684 25.2305L17.7038 20.0096Z" fill="white"/>
</g>
<defs>
<clipPath id="clip0_9683_44783">
<rect width="35" height="35" fill="white" transform="translate(7 7)"/>
</clipPath>
</defs>
</svg>
