<svg width="49" height="49" viewBox="0 0 49 49" fill="none" xmlns="http://www.w3.org/2000/svg">
<circle cx="24.5" cy="24.5" r="24.5" fill="#FF947A"/>
<path fill-rule="evenodd" clip-rule="evenodd" d="M14.7 17.148C14.7 14.4419 16.8938 12.248 19.6 12.248H26.95V17.148C26.95 19.8542 29.1438 22.048 31.85 22.048H34.3V31.848C34.3 34.5542 32.1061 36.748 29.4 36.748H19.6C16.8938 36.748 14.7 34.5542 14.7 31.848V17.148ZM19.6 23.273C18.9234 23.273 18.375 23.8215 18.375 24.498C18.375 25.1746 18.9234 25.723 19.6 25.723H22.05C22.7265 25.723 23.275 25.1746 23.275 24.498C23.275 23.8215 22.7265 23.273 22.05 23.273H19.6ZM19.6 28.173C18.9234 28.173 18.375 28.7215 18.375 29.398C18.375 30.0746 18.9234 30.623 19.6 30.623H24.5C25.1765 30.623 25.725 30.0746 25.725 29.398C25.725 28.7215 25.1765 28.173 24.5 28.173H19.6ZM30.2351 14.9416L30.0747 17.3476C30.0254 18.0871 30.639 18.7006 31.3785 18.6513L33.7845 18.4909C34.8347 18.4209 35.3135 17.1467 34.5693 16.4025L32.3236 14.1568C31.5794 13.4126 30.3052 13.8914 30.2351 14.9416Z" fill="white"/>
</svg>
