<svg width="49" height="49" viewBox="0 0 49 49" fill="none" xmlns="http://www.w3.org/2000/svg">
<circle cx="24.5" cy="24.5" r="24.5" fill="#FF5252"/>
<g clip-path="url(#clip0_9683_23165)">
<path d="M25.9615 10.6229L24.6967 7.42069C24.4876 6.86466 23.8338 6.84456 23.6033 7.42069L22.3385 10.6229L19.5356 11.1254C19.0372 11.2191 18.8228 11.9896 19.1926 12.4518L21.2291 14.9305L20.7468 18.4208C20.6718 19.0438 21.1863 19.5262 21.6472 19.2381L24.1607 17.5767L26.6582 19.2113C27.1191 19.4994 27.639 19.017 27.5586 18.394L27.0762 14.9037L29.1128 12.4518C29.4772 11.9963 29.2682 11.2258 28.7698 11.1254L25.9668 10.6229H25.9615ZM20.72 24.1486C19.7714 24.1486 19.005 25.1066 19.005 26.2924V39.1549C19.005 40.3406 19.7714 41.2986 20.72 41.2986H27.58C28.5286 41.2986 29.295 40.3406 29.295 39.1549V26.2924C29.295 25.1066 28.5286 24.1486 27.58 24.1486H20.72ZM8.715 28.4361C7.76639 28.4361 7 29.3941 7 30.5799V39.1549C7 40.3406 7.76639 41.2986 8.715 41.2986H15.575C16.5236 41.2986 17.29 40.3406 17.29 39.1549V30.5799C17.29 29.3941 16.5236 28.4361 15.575 28.4361H8.715ZM31.01 34.8674V39.1549C31.01 40.3406 31.7764 41.2986 32.725 41.2986H39.585C40.5336 41.2986 41.3 40.3406 41.3 39.1549V34.8674C41.3 33.6816 40.5336 32.7236 39.585 32.7236H32.725C31.7764 32.7236 31.01 33.6816 31.01 34.8674Z" fill="white"/>
</g>
<defs>
<clipPath id="clip0_9683_23165">
<rect width="34.3" height="34.3" fill="white" transform="translate(7 7)"/>
</clipPath>
</defs>
</svg>
