<svg width="24" height="24" viewBox="0 0 24 24" fill="none" xmlns="http://www.w3.org/2000/svg">
<path d="M16.4794 21.7751C14.1888 22.8235 11.6026 23.0336 9.17286 22.3686C6.74311 21.7036 4.62436 20.2058 3.18696 18.137C1.74956 16.0682 1.08495 13.5601 1.3093 11.051C1.53365 8.54186 2.63269 6.19141 4.41431 4.41047C6.19593 2.62952 8.5468 1.53137 11.056 1.30797C13.5652 1.08456 16.0731 1.75012 18.1413 3.1883C20.2095 4.62648 21.7065 6.7458 22.3706 9.1758C23.0347 11.6058 22.8237 14.1919 21.7744 16.4821" stroke="#929398" stroke-width="0.5" stroke-linecap="round" stroke-linejoin="round"/>
<path d="M19 22.75C21.0711 22.75 22.75 21.0711 22.75 19C22.75 16.9289 21.0711 15.25 19 15.25C16.9289 15.25 15.25 16.9289 15.25 19C15.25 21.0711 16.9289 22.75 19 22.75Z" stroke="#929398" stroke-width="0.5" stroke-linecap="round" stroke-linejoin="round"/>
<path d="M15.6112 17.4048C14.2693 18.3009 12.6419 18.6657 11.0459 18.4282C9.44985 18.1907 7.99926 17.3679 6.97638 16.1199C5.95351 14.8719 5.43152 13.288 5.512 11.6763C5.59248 10.0647 6.26966 8.54071 7.41178 7.40083C8.5539 6.26094 10.0793 5.58675 11.691 5.50942C13.3028 5.4321 14.8857 5.95719 16.1317 6.98251C17.3776 8.00782 18.1976 9.46003 18.432 11.0565C18.6664 12.653 18.2984 14.2796 17.3997 15.6198M18.7162 17.0708L18.0357 20.9278H19.9647" stroke="#929398" stroke-width="1.5" stroke-linecap="round" stroke-linejoin="round"/>
</svg>
