<svg width="49" height="49" viewBox="0 0 49 49" fill="none" xmlns="http://www.w3.org/2000/svg">
<circle cx="24.501" cy="24.501" r="24.501" fill="#9CCC65"/>
<path d="M17.9378 12.1055C15.6686 12.174 14.3168 12.4263 13.3805 13.3626C12.0986 14.6459 12.0986 16.7094 12.0986 20.838V30.3259C12.0986 34.4559 12.0986 36.5194 13.3805 37.8028C14.6609 39.0846 16.7245 39.0846 20.8486 39.0846H28.1403C32.2659 39.0846 34.328 39.0846 35.6084 37.8013C36.8918 36.5194 36.8918 34.4559 36.8918 30.3259V20.838C36.8918 16.7109 36.8918 14.6459 35.6084 13.3626C34.6736 12.4263 33.3203 12.174 31.0511 12.1055" stroke="white" stroke-width="2" stroke-linecap="round" stroke-linejoin="round"/>
<path d="M16.4795 21.5846H22.3128M26.6878 23.043C26.6878 23.043 27.417 23.043 28.1462 24.5013C28.1462 24.5013 30.462 20.8555 32.5212 20.1263M16.4795 30.3346H22.3128M26.6878 31.793C26.6878 31.793 27.417 31.793 28.1462 33.2513C28.1462 33.2513 30.462 29.6055 32.5212 28.8763M17.932 12.4701C17.932 11.0613 19.0753 9.91797 20.4841 9.91797H28.5049C29.1818 9.91797 29.8309 10.1868 30.3095 10.6655C30.7881 11.1441 31.057 11.7932 31.057 12.4701C31.057 13.1469 30.7881 13.796 30.3095 14.2746C29.8309 14.7533 29.1818 15.0221 28.5049 15.0221H20.4841C19.8072 15.0221 19.1581 14.7533 18.6795 14.2746C18.2009 13.796 17.932 13.1469 17.932 12.4701Z" stroke="white" stroke-width="2" stroke-linecap="round" stroke-linejoin="round"/>
</svg>
