<svg width="49" height="49" viewBox="0 0 49 49" fill="none" xmlns="http://www.w3.org/2000/svg">
<circle cx="24.501" cy="24.501" r="24.501" fill="#01C782"/>
<path d="M40.4844 28.1094L37.2031 24.8281C36.7656 24.3906 36.1094 24.3906 35.6719 24.8281L25.5 35V39.8125H30.3125L40.4844 29.6406C40.9219 29.2031 40.9219 28.5469 40.4844 28.1094ZM29.4375 37.625H27.6875V35.875L33.1562 30.4062L34.9062 32.1562L29.4375 37.625ZM36.4375 30.625L34.6875 28.875L36.4375 27.125L38.1875 28.875L36.4375 30.625ZM18.9375 32.1562H21.125V34.3438H18.9375V32.1562ZM23.3125 26.6875H27.6875V28.875H23.3125V26.6875ZM18.9375 26.6875H21.125V28.875H18.9375V26.6875ZM23.3125 21.2188H32.0625V23.4062H23.3125V21.2188ZM18.9375 21.2188H21.125V23.4062H18.9375V21.2188Z" fill="white"/>
<path d="M15.6562 37.625V14.6562H18.9375V17.9375H32.0625V14.6562H35.3438V21.2188H37.5312V14.6562C37.5312 13.4531 36.5469 12.4688 35.3438 12.4688H32.0625V11.375C32.0625 10.1719 31.0781 9.1875 29.875 9.1875H21.125C19.9219 9.1875 18.9375 10.1719 18.9375 11.375V12.4688H15.6562C14.4531 12.4688 13.4688 13.4531 13.4688 14.6562V37.625C13.4688 38.8281 14.4531 39.8125 15.6562 39.8125H21.125V37.625H15.6562ZM21.125 11.375H29.875V15.75H21.125V11.375Z" fill="white"/>
</svg>
