<svg width="49" height="49" viewBox="0 0 49 49" fill="none" xmlns="http://www.w3.org/2000/svg">
<circle cx="24.501" cy="24.501" r="24.501" fill="#9646FF" fill-opacity="0.86"/>
<path d="M37.166 24.5013C37.166 21.4071 35.9369 18.4396 33.7489 16.2517C31.561 14.0638 28.5935 12.8346 25.4993 12.8346C22.4052 12.8346 19.4377 14.0638 17.2498 16.2517C15.0618 18.4396 13.8327 21.4071 13.8327 24.5013C13.8327 27.5955 15.0618 30.563 17.2498 32.7509C19.4377 34.9388 22.4052 36.168 25.4993 36.168C28.5935 36.168 31.561 34.9388 33.7489 32.7509C35.9369 30.563 37.166 27.5955 37.166 24.5013ZM40.0827 24.5013C40.0827 32.5557 33.5537 39.0846 25.4993 39.0846C17.445 39.0846 10.916 32.5557 10.916 24.5013C10.916 16.4469 17.445 9.91797 25.4993 9.91797C33.5537 9.91797 40.0827 16.4469 40.0827 24.5013ZM27.6868 18.668C28.1652 19.3038 28.5079 20.0476 28.6712 20.8555H31.3327V23.043H28.6712C28.4191 24.2782 27.7479 25.3884 26.7713 26.1856C25.7946 26.9829 24.5726 27.4182 23.3118 27.418H23.0348L28.4598 32.843L26.9139 34.3888L19.666 27.1409V25.2305H23.3118C23.9906 25.2307 24.6526 25.0204 25.2069 24.6286C25.7611 24.2369 26.1802 23.6829 26.4064 23.043H19.666V20.8555H26.4064C26.1802 20.2156 25.7611 19.6616 25.2069 19.2698C24.6526 18.878 23.9906 18.6678 23.3118 18.668H19.666V16.4805H31.3327V18.668H27.6868Z" fill="white"/>
</svg>
