<svg width="49" height="49" viewBox="0 0 49 49" fill="none" xmlns="http://www.w3.org/2000/svg">
<circle cx="24.501" cy="24.501" r="24.501" fill="#FFBA57"/>
<path d="M35.5266 36.4442C35.5266 36.6879 35.4298 36.9216 35.2575 37.0939C35.0852 37.2662 34.8515 37.363 34.6078 37.363H22.6636C22.4199 37.363 22.1862 37.2662 22.0139 37.0939C21.8416 36.9216 21.7448 36.6879 21.7448 36.4442C21.7448 36.2005 21.8416 35.9668 22.0139 35.7945C22.1862 35.6222 22.4199 35.5254 22.6636 35.5254H34.6078C34.8515 35.5254 35.0852 35.6222 35.2575 35.7945C35.4298 35.9668 35.5266 36.2005 35.5266 36.4442ZM35.5266 28.1751V31.8503C35.5266 32.3376 35.333 32.805 34.9884 33.1496C34.6438 33.4942 34.1764 33.6878 33.689 33.6878H22.9059C22.5642 33.6889 22.229 33.5943 21.9384 33.4146C21.6477 33.235 21.4131 32.9775 21.2613 32.6714L14.5874 19.349C14.4606 19.0935 14.3945 18.812 14.3945 18.5267C14.3945 18.2414 14.4606 17.9599 14.5874 17.7044L17.1279 12.6511C17.3435 12.2208 17.7194 11.8922 18.1747 11.7361C18.63 11.58 19.1283 11.6087 19.5627 11.8161L23.4319 13.4493L23.4859 13.4745C23.9215 13.6926 24.2527 14.0747 24.4067 14.5369C24.5607 14.999 24.5248 15.5034 24.3071 15.9392C24.3035 15.9479 24.2993 15.9564 24.2944 15.9644L22.6636 18.9873L26.3135 26.3375H33.689C34.1764 26.3375 34.6438 26.5311 34.9884 26.8758C35.333 27.2204 35.5266 27.6878 35.5266 28.1751ZM33.689 28.1751H26.3123C25.9707 28.1762 25.6357 28.0816 25.3452 27.9019C25.0547 27.7223 24.8204 27.4648 24.6688 27.1587L21.0178 19.8084C20.8912 19.5534 20.8253 19.2725 20.8253 18.9878C20.8253 18.7031 20.8912 18.4223 21.0178 18.1672L21.0316 18.142L22.6636 15.1192L18.8242 13.4987C18.8058 13.4915 18.7878 13.4835 18.7702 13.4745L16.2321 18.5279L22.9048 31.8503H33.689V28.1751Z" fill="white"/>
</svg>
