<svg width="49" height="49" viewBox="0 0 49 49" fill="none" xmlns="http://www.w3.org/2000/svg">
<circle cx="24.5" cy="24.5" r="24.5" fill="#3CD856"/>
<path d="M37.8705 14.4002L25.008 10.1127C24.6786 10.0015 24.3218 10.0015 23.9924 10.1127L11.1299 14.4002C10.823 14.5018 10.5539 14.6937 10.3576 14.9506C10.1614 15.2075 10.0472 15.5177 10.0299 15.8405C10.0284 15.8686 10.0284 15.8968 10.0299 15.9249V26.6437C10.0299 27.0701 10.1993 27.4791 10.5008 27.7806C10.8024 28.0821 11.2113 28.2515 11.6377 28.2515C12.0641 28.2515 12.4731 28.0821 12.7746 27.7806C13.0761 27.4791 13.2455 27.0701 13.2455 26.6437V18.1558L16.4223 19.2143C15.4364 21.1014 15.1434 23.2745 15.5944 25.3554C16.0453 27.4363 17.2116 29.2932 18.8903 30.6029C16.6935 31.6862 14.8344 33.3489 13.5135 35.4116C13.3946 35.5884 13.3119 35.7871 13.2705 35.9961C13.229 36.2051 13.2294 36.4202 13.2718 36.629C13.3142 36.8379 13.3977 37.0362 13.5174 37.2124C13.6371 37.3887 13.7907 37.5394 13.9691 37.6558C14.1476 37.7722 14.3474 37.852 14.557 37.8905C14.7666 37.929 14.9817 37.9255 15.1899 37.8801C15.3981 37.8347 15.5952 37.7484 15.7697 37.6262C15.9443 37.504 16.0928 37.3483 16.2066 37.1682C18.1186 34.2259 21.1506 32.539 24.5002 32.539C27.8498 32.539 30.8819 34.2259 32.8006 37.1682C32.9144 37.3483 33.0629 37.504 33.2374 37.6262C33.412 37.7484 33.6091 37.8347 33.8173 37.8801C34.0255 37.9255 34.2406 37.929 34.4502 37.8905C34.6597 37.852 34.8596 37.7722 35.038 37.6558C35.2165 37.5394 35.3701 37.3887 35.4898 37.2124C35.6095 37.0362 35.6929 36.8379 35.7353 36.629C35.7777 36.4202 35.7782 36.2051 35.7367 35.9961C35.6952 35.7871 35.6126 35.5884 35.4936 35.4116C34.1715 33.3465 32.3099 31.6823 30.1102 30.5989C31.7889 29.2892 32.9552 27.4323 33.4061 25.3514C33.857 23.2705 33.5641 21.0974 32.5781 19.2102L37.8705 17.4457C38.1903 17.3387 38.4683 17.1339 38.6653 16.8603C38.8622 16.5867 38.9682 16.2581 38.9682 15.9209C38.9682 15.5838 38.8622 15.2551 38.6653 14.9815C38.4683 14.7079 38.1903 14.5031 37.8705 14.3962V14.4002ZM24.5002 13.3283L32.278 15.9249L24.5002 18.5175L16.7291 15.9249L24.5002 13.3283ZM30.3955 23.4281C30.3957 24.3438 30.1826 25.2469 29.773 26.0659C29.3635 26.8849 28.7688 27.5972 28.036 28.1464C27.3033 28.6956 26.4528 29.0666 25.5518 29.2299C24.6507 29.3933 23.7241 29.3445 22.8452 29.0874C21.9663 28.8303 21.1594 28.3721 20.4885 27.7489C19.8175 27.1258 19.3009 26.3549 18.9796 25.4974C18.6584 24.64 18.5413 23.7194 18.6376 22.8088C18.734 21.8982 19.0412 21.0226 19.5348 20.2513L23.9924 21.7372C24.3219 21.8479 24.6785 21.8479 25.008 21.7372L29.4657 20.2513C30.0737 21.1992 30.3965 22.3019 30.3955 23.4281Z" fill="white"/>
</svg>
