<svg width="49" height="49" viewBox="0 0 49 49" fill="none" xmlns="http://www.w3.org/2000/svg">
<circle cx="24.501" cy="24.501" r="24.501" fill="white"/>
<path d="M36.5312 12.4688H12.4688C11.8886 12.4688 11.3322 12.6992 10.922 13.1095C10.5117 13.5197 10.2813 14.0761 10.2813 14.6562V36.5312C10.2811 36.7178 10.3287 36.9013 10.4195 37.0642C10.5102 37.2272 10.6411 37.3642 10.7998 37.4623C10.9585 37.5604 11.1396 37.6163 11.3259 37.6247C11.5122 37.6331 11.6976 37.5936 11.8645 37.5102L15.75 35.566L19.6355 37.5102C19.7875 37.5862 19.9551 37.6258 20.125 37.6258C20.2949 37.6258 20.4625 37.5862 20.6145 37.5102L24.5 35.566L28.3855 37.5102C28.5375 37.5862 28.7051 37.6258 28.875 37.6258C29.0449 37.6258 29.2125 37.5862 29.3645 37.5102L33.25 35.566L37.1355 37.5102C37.3024 37.5936 37.4878 37.6331 37.6741 37.6247C37.8604 37.6163 38.0415 37.5604 38.2002 37.4623C38.3589 37.3642 38.4898 37.2272 38.5805 37.0642C38.6713 36.9013 38.7189 36.7178 38.7188 36.5312V14.6562C38.7188 14.0761 38.4883 13.5197 38.078 13.1095C37.6678 12.6992 37.1114 12.4688 36.5312 12.4688ZM36.5312 34.7621L33.7395 33.3648C33.5875 33.2888 33.4199 33.2492 33.25 33.2492C33.0801 33.2492 32.9125 33.2888 32.7605 33.3648L28.875 35.309L24.9895 33.3648C24.8375 33.2888 24.6699 33.2492 24.5 33.2492C24.3301 33.2492 24.1625 33.2888 24.0105 33.3648L20.125 35.309L16.2395 33.3648C16.0875 33.2888 15.9199 33.2492 15.75 33.2492C15.5801 33.2492 15.4125 33.2888 15.2605 33.3648L12.4688 34.7621V14.6562H36.5312V34.7621ZM15.2605 29.8539C15.3891 29.9183 15.529 29.9567 15.6724 29.9669C15.8158 29.9771 15.9598 29.959 16.0962 29.9136C16.2326 29.8681 16.3586 29.7962 16.4672 29.702C16.5758 29.6078 16.6647 29.4931 16.7289 29.3645L17.5191 27.7812H22.7309L23.5211 29.3645C23.5854 29.493 23.6743 29.6076 23.7829 29.7018C23.8915 29.796 24.0176 29.8678 24.1539 29.9133C24.2903 29.9587 24.4342 29.9769 24.5776 29.9667C24.7209 29.9565 24.8609 29.9182 24.9895 29.8539C25.118 29.7896 25.2326 29.7007 25.3268 29.5921C25.421 29.4835 25.4928 29.3574 25.5383 29.2211C25.5837 29.0847 25.6019 28.9408 25.5917 28.7974C25.5815 28.6541 25.5432 28.5141 25.4789 28.3855L21.1039 19.6355C21.0132 19.4535 20.8735 19.3004 20.7006 19.1934C20.5277 19.0864 20.3284 19.0297 20.125 19.0297C19.9216 19.0297 19.7223 19.0864 19.5494 19.1934C19.3765 19.3004 19.2368 19.4535 19.1461 19.6355L14.7711 28.3855C14.7067 28.5141 14.6683 28.654 14.6581 28.7974C14.6479 28.9408 14.666 29.0848 14.7114 29.2212C14.7569 29.3576 14.8288 29.4836 14.923 29.5922C15.0172 29.7008 15.1319 29.7897 15.2605 29.8539ZM20.125 22.5709L21.6371 25.5938H18.6129L20.125 22.5709ZM25.5938 24.5C25.5938 24.2099 25.709 23.9317 25.9141 23.7266C26.1192 23.5215 26.3974 23.4062 26.6875 23.4062H28.875V21.2188C28.875 20.9287 28.9902 20.6505 29.1954 20.4454C29.4005 20.2402 29.6787 20.125 29.9688 20.125C30.2588 20.125 30.537 20.2402 30.7421 20.4454C30.9473 20.6505 31.0625 20.9287 31.0625 21.2188V23.4062H33.25C33.5401 23.4062 33.8183 23.5215 34.0234 23.7266C34.2285 23.9317 34.3438 24.2099 34.3438 24.5C34.3438 24.7901 34.2285 25.0683 34.0234 25.2734C33.8183 25.4785 33.5401 25.5938 33.25 25.5938H31.0625V27.7812C31.0625 28.0713 30.9473 28.3495 30.7421 28.5546C30.537 28.7598 30.2588 28.875 29.9688 28.875C29.6787 28.875 29.4005 28.7598 29.1954 28.5546C28.9902 28.3495 28.875 28.0713 28.875 27.7812V25.5938H26.6875C26.3974 25.5938 26.1192 25.4785 25.9141 25.2734C25.709 25.0683 25.5938 24.7901 25.5938 24.5Z" fill="black"/>
</svg>
