<svg width="49" height="49" viewBox="0 0 49 49" fill="none" xmlns="http://www.w3.org/2000/svg">
<circle cx="24.5" cy="24.5" r="24.5" fill="#BF83FF"/>
<path d="M15.8125 11.0273V13.2969C16.723 13.9267 17.308 15.1115 17.308 16.4108C17.308 17.2309 17.0746 18.0049 16.6741 18.6231C16.8813 18.7038 17.0991 18.7935 17.2812 18.8726L24.5996 17.5099L24.9536 20.7902L18.2694 22.179C18.2179 23.1517 18.1229 24.1088 17.9531 25.2634H38.0637V11.0273H15.8125ZM14.3173 13.8984C13.3246 13.8984 12.4031 14.96 12.4031 16.4109C12.4031 17.8618 13.3246 18.9232 14.3173 18.9232C15.3099 18.9232 16.2314 17.8618 16.2314 16.4109C16.2314 14.96 15.3099 13.8984 14.3173 13.8984ZM23.6541 18.781L17.1587 19.9905C16.3069 19.6554 16.8622 19.8089 15.8745 19.481C15.4274 19.8082 14.8978 19.9998 14.3173 19.9998C13.8029 19.9998 13.3285 19.8488 12.9159 19.587C12.4021 19.8002 11.8599 20.0709 11.3765 20.3439C10.5994 20.7828 9.95762 21.1341 9.71143 21.3029V29.0915H10.908V22.452H11.9844V38.1833H13.779V28.0746H14.8555V38.1833H16.4109V27.9048L16.4201 27.8555C16.9892 24.8265 17.173 23.2269 17.2253 21.2965L23.7785 19.9348L23.6541 18.781ZM17.7831 26.3401C17.7261 26.68 17.664 27.0363 17.5949 27.4165H37.1664V26.3401H17.7831ZM21.0165 29.2109C20.0239 29.2109 19.1023 30.2725 19.1023 31.7234C19.1023 32.8119 19.6209 33.6811 20.2992 34.0475C20.5145 33.9481 20.7467 33.8856 20.9978 33.8769C21.2749 33.8674 21.5349 33.9228 21.7785 34.0217C22.4346 33.6418 22.9307 32.7877 22.9307 31.7234C22.9307 30.2725 22.0091 29.2109 21.0165 29.2109ZM27.7157 29.2109C26.7231 29.2109 25.8015 30.2725 25.8015 31.7234C25.8015 32.8119 26.3201 33.6811 26.9984 34.0475C27.2137 33.9481 27.4459 33.8856 27.697 33.8769C27.9742 33.8674 28.2342 33.9228 28.4777 34.0217C29.1338 33.6418 29.6299 32.7877 29.6299 31.7234C29.6299 30.2725 28.7083 29.2109 27.7157 29.2109ZM34.4149 29.2109C33.4223 29.2109 32.5007 30.2725 32.5007 31.7234C32.5007 32.8119 33.0193 33.6811 33.6976 34.0475C33.9129 33.9481 34.1452 33.8856 34.3963 33.8769C34.6734 33.8674 34.9334 33.9228 35.177 34.0217C35.833 33.6418 36.3291 32.7877 36.3291 31.7234C36.3291 30.2725 35.4075 29.2109 34.4149 29.2109ZM21.0351 34.9529C20.8052 34.9608 20.5024 35.1281 20.1798 35.4784C19.8572 35.8286 19.54 36.3307 19.2751 36.8397C19.0223 37.3254 18.82 37.8063 18.6734 38.1833H23.7779C23.596 37.7984 23.3509 37.3131 23.0521 36.8249C22.7352 36.307 22.3636 35.7998 21.9953 35.4517C21.6271 35.1037 21.2895 34.9441 21.0351 34.9529ZM27.7344 34.9529C27.5044 34.9608 27.2016 35.1281 26.879 35.4784C26.5564 35.8286 26.2392 36.3307 25.9743 36.8397C25.7215 37.3254 25.5192 37.8063 25.3726 38.1833H30.4771C30.2953 37.7984 30.0501 37.3131 29.7514 36.8249C29.4345 36.307 29.0628 35.7998 28.6946 35.4517C28.3263 35.1037 27.9887 34.9441 27.7344 34.9529ZM34.4336 34.9529C34.2037 34.9608 33.9008 35.1281 33.5782 35.4784C33.2557 35.8286 32.9385 36.3307 32.6735 36.8397C32.4208 37.3254 32.2184 37.8063 32.0718 38.1833H37.1763C36.9945 37.7984 36.7494 37.3131 36.4506 36.8249C36.1337 36.307 35.7621 35.7998 35.3938 35.4517C35.0255 35.1037 34.6879 34.9441 34.4336 34.9529Z" fill="white"/>
</svg>
