<svg width="49" height="49" viewBox="0 0 49 49" fill="none" xmlns="http://www.w3.org/2000/svg">
<circle cx="24.501" cy="24.501" r="24.501" fill="#0198C7"/>
<path fill-rule="evenodd" clip-rule="evenodd" d="M20.0312 16.8438C20.0312 15.3933 20.6074 14.0023 21.633 12.9768C22.6586 11.9512 24.0496 11.375 25.5 11.375C26.9504 11.375 28.3414 11.9512 29.367 12.9768C30.3926 14.0023 30.9688 15.3933 30.9688 16.8438C30.9688 18.2942 30.3926 19.6852 29.367 20.7107C28.3414 21.7363 26.9504 22.3125 25.5 22.3125C24.0496 22.3125 22.6586 21.7363 21.633 20.7107C20.6074 19.6852 20.0312 18.2942 20.0312 16.8438ZM30.9688 21.2188C30.9688 20.0584 31.4297 18.9456 32.2502 18.1252C33.0706 17.3047 34.1834 16.8438 35.3438 16.8438C36.5041 16.8438 37.6169 17.3047 38.4373 18.1252C39.2578 18.9456 39.7188 20.0584 39.7188 21.2188C39.7188 22.3791 39.2578 23.4919 38.4373 24.3123C37.6169 25.1328 36.5041 25.5938 35.3438 25.5938C34.1834 25.5938 33.0706 25.1328 32.2502 24.3123C31.4297 23.4919 30.9688 22.3791 30.9688 21.2188ZM11.2812 21.2188C11.2812 20.0584 11.7422 18.9456 12.5627 18.1252C13.3831 17.3047 14.4959 16.8438 15.6562 16.8438C16.8166 16.8438 17.9294 17.3047 18.7498 18.1252C19.5703 18.9456 20.0312 20.0584 20.0312 21.2188C20.0312 22.3791 19.5703 23.4919 18.7498 24.3123C17.9294 25.1328 16.8166 25.5938 15.6562 25.5938C14.4959 25.5938 13.3831 25.1328 12.5627 24.3123C11.7422 23.4919 11.2813 22.3791 11.2812 21.2188ZM17.2021 29.0471C18.0919 27.6531 19.3186 26.5059 20.7689 25.7111C22.2191 24.9164 23.8463 24.4999 25.5 24.5C26.8852 24.4987 28.255 24.79 29.5197 25.3548C30.7845 25.9196 31.9158 26.7452 32.8394 27.7774C33.763 28.8097 34.4582 30.0254 34.8795 31.3449C35.3008 32.6644 35.4386 34.0581 35.284 35.4346C35.2651 35.6056 35.2061 35.7697 35.1118 35.9137C35.0175 36.0576 34.8907 36.1772 34.7415 36.2629C31.929 37.8763 28.7423 38.7232 25.5 38.7188C22.2577 38.7232 19.071 37.8763 16.2585 36.2629C16.1093 36.1772 15.9825 36.0576 15.8882 35.9137C15.7939 35.7697 15.7349 35.6056 15.716 35.4346C15.4727 33.1985 15.9967 30.9461 17.2021 29.0471Z" fill="white"/>
<path d="M15.4112 27.7852L15.3588 27.8654C13.9577 30.0701 13.3075 32.6689 13.5052 35.2737C12.629 35.1409 11.7672 34.9261 10.9313 34.632L10.7635 34.5737C10.6136 34.5211 10.4823 34.4258 10.3857 34.2997C10.289 34.1736 10.2313 34.022 10.2196 33.8635L10.205 33.687C10.1933 33.5402 10.1875 33.3939 10.1875 33.2481C10.1876 31.8401 10.7307 30.4865 11.7037 29.4689C12.6767 28.4513 14.0047 27.8482 15.4112 27.7852ZM37.4963 35.2737C37.6957 32.6361 37.0257 30.0059 35.5887 27.7852C36.3225 27.818 37.0421 27.9984 37.7047 28.3155C38.3672 28.6326 38.9591 29.0799 39.445 29.6307C39.9309 30.1815 40.3008 30.8246 40.5328 31.5215C40.7647 32.2184 40.8539 32.9549 40.795 33.687L40.7804 33.8635C40.7684 34.0217 40.7106 34.173 40.614 34.2988C40.5173 34.4247 40.3862 34.5197 40.2365 34.5722L40.0688 34.6306C39.2414 34.9242 38.3839 35.1386 37.4963 35.2737Z" fill="white"/>
</svg>
